<?xml version="1.0" encoding="utf-8"?>
<!-- Generator: Adobe Illustrator 23.1.0, SVG Export Plug-In . SVG Version: 6.00 Build 0)  -->
<svg version="1.1" id="图层_1" xmlns="http://www.w3.org/2000/svg" xmlns:xlink="http://www.w3.org/1999/xlink" x="0px" y="0px"
	 viewBox="0 0 500 500" style="enable-background:new 0 0 500 500;" xml:space="preserve">
<style type="text/css">
	.st0{fill:#FFFFFF;}
	.st1{fill:#E0DEF4;}
	.st2{fill:#31748F;}
	.st3{fill:#EB6F92;}
	.st4{fill:#C4A7E7;}
	.st5{fill:none;stroke:#754C24;stroke-width:0.4964;stroke-miterlimit:10;}
	.st6{fill:none;stroke:#754C24;stroke-width:0.4964;stroke-miterlimit:10;stroke-dasharray:1.0017,1.0017;}
	.st7{fill:none;stroke:#754C24;stroke-width:0.3973;stroke-miterlimit:10;}
	.st8{fill:none;stroke:#754C24;stroke-width:0.3973;stroke-miterlimit:10;stroke-dasharray:0.7883,0.7883;}
	.st9{fill:none;stroke:#754C24;stroke-width:0.3973;stroke-miterlimit:10;stroke-dasharray:0.7974,0.7974;}
	.st10{fill:none;stroke:#754C24;stroke-width:0.4964;stroke-miterlimit:10;stroke-dasharray:0.9966,0.9966;}
	.st11{fill:none;stroke:#754C24;stroke-width:0.4964;stroke-miterlimit:10;stroke-dasharray:0.9928;}
	.st12{fill:none;stroke:#754C24;stroke-width:0.6647;stroke-miterlimit:10;stroke-dasharray:1.3295;}
	.st13{fill:#EA9A97;}
</style>
<rect x="10.6" y="113.2" class="st0" width="68.4" height="171"/>
<rect x="113.2" y="113.2" class="st0" width="34.2" height="273.6"/>
<rect x="158.8" y="113.2" class="st0" width="34.2" height="273.6"/>
<rect x="204.4" y="113.2" class="st0" width="34.2" height="273.6"/>
<rect x="250" y="113.2" class="st0" width="34.2" height="205.2"/>
<rect x="352.6" y="318.4" transform="matrix(-1.836970e-16 1 -1 -1.836970e-16 739.439 -3.513150e-05)" class="st0" width="34.2" height="102.6"/>
<rect x="386.8" y="238.6" transform="matrix(-1.836970e-16 1 -1 -1.836970e-16 728.037 -79.813)" class="st0" width="34.2" height="171"/>
<rect x="386.8" y="193" transform="matrix(-1.836970e-16 1 -1 -1.836970e-16 682.4296 -125.4204)" class="st0" width="34.2" height="171"/>
<rect x="318.4" y="113.2" class="st0" width="34.2" height="136.8"/>
<rect x="364" y="113.2" class="st0" width="34.2" height="136.8"/>
<rect x="409.6" y="113.2" class="st0" width="34.2" height="136.8"/>
<rect x="455.2" y="113.2" class="st0" width="34.2" height="136.8"/>
<path class="st1" d="M44.8,318.4c-18.9,0-34.2,15.3-34.2,34.2c0,18.9,15.3,34.2,34.2,34.2S79,371.5,79,352.6
	C79,333.7,63.7,318.4,44.8,318.4z"/>
<circle class="st1" cx="267.1" cy="369.7" r="17.1"/>
<circle class="st1" cx="472.3" cy="369.7" r="17.1"/>
</svg>
